<?xml version="1.0" encoding="UTF-8" standalone="no"?>
<svg
   xmlns:dc="http://purl.org/dc/elements/1.1/"
   xmlns:cc="http://creativecommons.org/ns#"
   xmlns:rdf="http://www.w3.org/1999/02/22-rdf-syntax-ns#"
   xmlns:svg="http://www.w3.org/2000/svg"
   xmlns="http://www.w3.org/2000/svg"
   xmlns:xlink="http://www.w3.org/1999/xlink"
   xmlns:sodipodi="http://sodipodi.sourceforge.net/DTD/sodipodi-0.dtd"
   xmlns:inkscape="http://www.inkscape.org/namespaces/inkscape"
   version="1.1"
   width="64px"
   height="64px"
   id="svg4642"
   inkscape:version="0.48.5 r10040"
   sodipodi:docname="cc-logo.svg"
   inkscape:export-filename="/home/roland/Documents/projects/foton/buttons/cc-logo.png"
   inkscape:export-xdpi="90"
   inkscape:export-ydpi="90">
  <metadata
     id="metadata4653">
    <rdf:RDF>
      <cc:Work
         rdf:about="">
        <dc:format>image/svg+xml</dc:format>
        <dc:type
           rdf:resource="http://purl.org/dc/dcmitype/StillImage" />
        <dc:title></dc:title>
      </cc:Work>
    </rdf:RDF>
  </metadata>
  <defs
     id="defs4651" />
  <sodipodi:namedview
     pagecolor="#ffffff"
     bordercolor="#666666"
     borderopacity="1"
     objecttolerance="10"
     gridtolerance="10"
     guidetolerance="10"
     inkscape:pageopacity="0"
     inkscape:pageshadow="2"
     inkscape:window-width="1916"
     inkscape:window-height="1177"
     id="namedview4649"
     showgrid="false"
     showguides="true"
     inkscape:guide-bbox="true"
     inkscape:zoom="11.313708"
     inkscape:cx="23.54221"
     inkscape:cy="27.171745"
     inkscape:window-x="0"
     inkscape:window-y="19"
     inkscape:window-maximized="0"
     inkscape:current-layer="svg4642" />
  <path
     transform="translate(0.2685833,0.88046455)"
     style="fill:#ffffff;fill-opacity:0.82743365;stroke:none"
     d="m 60.987959,31.119535 c 0,16.157943 -13.0986,29.256543 -29.256542,29.256543 -16.157942,0 -29.2565425,-13.0986 -29.2565425,-29.256543 0,-16.157942 13.0986005,-29.2565418 29.2565425,-29.2565418 16.157942,0 29.256542,13.0985998 29.256542,29.2565418 z"
     id="path4657" />
  <path
     d="m 31.957,0.3105 c -8.682,0 -16.322,3.213 -22.226,9.203 -6.078,6.164 -9.377,14.152 -9.377,22.486 0,8.422 3.212,16.236 9.29,22.313 6.078,6.078 13.978,9.377 22.313,9.377 8.334,0 16.409,-3.299 22.66,-9.463 5.904,-5.817 9.029,-13.544 9.029,-22.227 0,-8.595 -3.125,-16.408 -9.116,-22.399 -6.077,-6.078 -13.891,-9.29 -22.573,-9.29 z m 0.086,5.73 c 7.12,0 13.458,2.691 18.406,7.641 4.862,4.861 7.466,11.286 7.466,18.318 0,7.119 -2.518,13.371 -7.379,18.146 -5.123,5.035 -11.721,7.727 -18.493,7.727 -6.858,0 -13.283,-2.691 -18.232,-7.641 -4.949,-4.949 -7.727,-11.46 -7.727,-18.232 0,-6.858 2.778,-13.369 7.727,-18.406 4.862,-4.948 11.113,-7.553 18.232,-7.553 z"
     id="path4644"
     inkscape:connector-curvature="0" />
  <path
     id="c"
     d="M31.635,26.734c-1.79-3.264-4.844-4.563-8.389-4.563  c-5.16,0-9.267,3.65-9.267,9.828c0,6.283,3.861,9.829,9.442,9.829c3.581,0,6.635-1.966,8.319-4.949l-3.931-2.001  c-0.878,2.105-2.212,2.738-3.896,2.738c-2.914,0-4.248-2.422-4.248-5.617c0-3.193,1.124-5.616,4.248-5.616  c0.842,0,2.527,0.456,3.51,2.563L31.635,26.734z" />
  <use
     xlink:href="#c"
     transform="translate(18.281)"
     id="use4647" />
</svg>
